# xmcd
#
# Track frame offsets:
#	150
#	16746
#	31994
#	48147
#	64952
#	89297
#	98973
#	120291
#	132153
#	149242
#	161118
#	172575
#	196421
#
# Disc length: 2864 seconds
#
# Revision: 1
# Processed by: cddbd v1.5.1PL0 Copyright (c) Steve Scherf et al.
# Submitted via: audiograbber 1.83.01
#
DISCID=a80b2e0d
DTITLE=Blaze Foley (Various Artists) - Blaze Foley - Blaze Foly Inside - BFI Th
DTITLE=ree
DYEAR=1900
DGENRE=Country
TTITLE0=Gurf Morlix - 123, 12345
TTITLE1=The Blazettes - Girl Scout Cookies
TTITLE2=Ponty Bone and The Squeezetones - Ain't No Sweet Thing
TTITLE3=Deep in Cider - There Goes That
TTITLE4=Misfit Zion - (New) Slow Boat to China
TTITLE5=Alan Smithy - Crawl Back to You
TTITLE6=Jimmy Lee Jones - Someday
TTITLE7=The Rambles - Getting Over You
TTITLE8=Jon Emery - Anything Less
TTITLE9=Rick Cardwell - Where Are You Now my Love
TTITLE10=Cody Hubach - Long Gone
TTITLE11=Merle Haggard and Willie Nelson - If I Could Only Fly
TTITLE12=Various Artist - Sampler Vol 4
EXTD=
EXTT0=
EXTT1=
EXTT2=
EXTT3=
EXTT4=
EXTT5=
EXTT6=
EXTT7=
EXTT8=
EXTT9=
EXTT10=
EXTT11=
EXTT12=
PLAYORDER=
